<svg width="45" height="44" viewBox="0 0 45 44" fill="none" xmlns="http://www.w3.org/2000/svg">
<circle cx="17.5" cy="5" r="4.25" stroke="#9EC9E3" stroke-width="1.5"/>
<path d="M23.5 20V17C23.5 13.134 20.8137 10 17.5 10C14.1863 10 11.5 13.134 11.5 17V20" stroke="#9EC9E3" stroke-width="1.5"/>
<path d="M1 19.25C0.585786 19.25 0.25 19.5858 0.25 20C0.25 20.4142 0.585786 20.75 1 20.75V19.25ZM43 20.75C43.4142 20.75 43.75 20.4142 43.75 20C43.75 19.5858 43.4142 19.25 43 19.25V20.75ZM1 20.75H43V19.25H1V20.75Z" fill="#9EC9E3"/>
<path d="M2.5 20V36C2.5 36.5523 2.94772 37 3.5 37H40.5C41.0523 37 41.5 36.5523 41.5 36V20" stroke="#9EC9E3" stroke-width="1.5"/>
<path d="M15.5 22.25C15.0858 22.25 14.75 22.5858 14.75 23C14.75 23.4142 15.0858 23.75 15.5 23.75V22.25ZM28 23.75C28.4142 23.75 28.75 23.4142 28.75 23C28.75 22.5858 28.4142 22.25 28 22.25V23.75ZM18.5 25.25C18.0858 25.25 17.75 25.5858 17.75 26C17.75 26.4142 18.0858 26.75 18.5 26.75V25.25ZM25.5 26.75C25.9142 26.75 26.25 26.4142 26.25 26C26.25 25.5858 25.9142 25.25 25.5 25.25V26.75ZM15.5 23.75H28V22.25H15.5V23.75ZM18.5 26.75H25.5V25.25H18.5V26.75Z" fill="#9EC9E3"/>
<path d="M36.5 20L38.4227 14.232C38.4715 14.0856 38.4499 13.9249 38.3644 13.7965L35.6484 9.72265C35.5557 9.58355 35.3996 9.5 35.2324 9.5H32.5C32.2239 9.5 32 9.72386 32 10V10.5" stroke="#9EC9E3" stroke-width="1.5"/>
<path d="M34.3063 14.5H30.7694C30.4076 14.5 30.1655 14.1276 30.3125 13.7969L31.868 10.2969C31.9483 10.1164 32.1273 10 32.3249 10H33.1396C33.3548 10 33.5459 10.1377 33.614 10.3419L34.7806 13.8419C34.8886 14.1657 34.6476 14.5 34.3063 14.5Z" stroke="#9EC9E3" stroke-width="1.5"/>
<ellipse cx="38.7915" cy="38" rx="5.79151" ry="6" fill="#6EC2F4"/>
</svg>
