<svg width="41" height="39" viewBox="0 0 41 39" fill="none" xmlns="http://www.w3.org/2000/svg">
<circle cx="20.5" cy="4.5" r="3.75" stroke="#9EC9E3" stroke-width="1.5"/>
<path d="M25.9094 16H15C14.4477 16 13.9938 15.5497 14.0448 14.9998C14.5186 9.88129 18.6382 8.85823 20.76 9.01483C24.7248 9.30747 26.326 12.6853 26.8281 14.9243C26.9564 15.4966 26.4958 16 25.9094 16Z" stroke="#9EC9E3" stroke-width="1.5"/>
<path d="M28 26L27.3292 25.6646L27.3053 25.7123L27.2885 25.7628L28 26ZM19.5468 26.2515C19.1334 26.2256 18.7773 26.5398 18.7515 26.9532C18.7256 27.3666 19.0398 27.7227 19.4532 27.7485L19.5468 26.2515ZM36.2768 23.8552L36.896 24.2785L36.2768 23.8552ZM32.5913 21.0261L32.0402 20.5174L32.5913 21.0261ZM7.11213 37.2241L6.44131 37.5595L7.11213 37.2241ZM11.2429 35.4144L10.6344 34.976L11.2429 35.4144ZM11.289 34.5586L10.6124 34.8822L11.289 34.5586ZM25.9299 22.5002L25.9267 21.7502L25.9299 22.5002ZM26.0696 22.5107L25.948 23.2508L26.0696 22.5107ZM5.87169 23.3858L6.33377 22.795L5.87169 23.3858ZM6.07391 23.654L6.75051 23.3305L6.07391 23.654ZM30.7606 30.8389L30.2194 30.3197L30.7606 30.8389ZM2.10395 25.1255C2.74918 24.676 3.47092 24.2369 4.12808 24.0028C4.81757 23.7572 5.20301 23.8149 5.40961 23.9765L6.33377 22.795C5.49469 22.1387 4.44201 22.2987 3.62474 22.5898C2.77515 22.8925 1.92152 23.4245 1.24656 23.8947L2.10395 25.1255ZM10.6344 34.976C10.238 35.5261 9.3855 36.3842 8.00296 37.0011L8.61414 38.3709C10.2541 37.6392 11.3104 36.6037 11.8514 35.8528L10.6344 34.976ZM7.78295 36.8887L2.04406 25.4111L0.702419 26.0819L6.44131 37.5595L7.78295 36.8887ZM5.3973 23.9776L5.56269 24.3234L6.9159 23.6763L6.75051 23.3305L5.3973 23.9776ZM5.56269 24.3234L10.6124 34.8822L11.9656 34.2351L6.9159 23.6763L5.56269 24.3234ZM6.82227 24.4717C7.64943 23.4497 9.13316 22.0554 10.8571 21.2111C12.5722 20.371 14.4112 20.1213 16.1142 21.143L16.8858 19.8567C14.5888 18.4787 12.1742 18.8957 10.1973 19.864C8.22935 20.8279 6.58273 22.3834 5.65632 23.528L6.82227 24.4717ZM16.1142 21.143C20.2792 23.6417 23.9691 23.2587 25.9332 23.2501L25.9267 21.7502C23.8688 21.7591 20.6282 22.1019 16.8858 19.8567L16.1142 21.143ZM25.948 23.2508C26.4486 23.333 27.0294 23.5686 27.3513 23.9381C27.4987 24.1072 27.5926 24.3036 27.6124 24.5495C27.6328 24.8031 27.5784 25.1661 27.3292 25.6646L28.6708 26.3354C29.0098 25.6574 29.1552 25.0202 29.1076 24.4292C29.0594 23.8304 28.8177 23.3377 28.4823 22.9528C27.8388 22.2142 26.8662 21.8815 26.1912 21.7706L25.948 23.2508ZM27.2885 25.7628C27.3478 25.5848 27.4409 25.6187 27.1731 25.7492C26.9509 25.8574 26.5656 25.9881 25.9531 26.0996C24.7315 26.3221 22.7148 26.4495 19.5468 26.2515L19.4532 27.7485C22.6852 27.9505 24.8352 27.8279 26.2219 27.5754C26.9136 27.4494 27.4429 27.2863 27.83 27.0977C28.1716 26.9313 28.5688 26.6652 28.7115 26.2372L27.2885 25.7628ZM28.5511 26.5087L33.1424 21.5348L32.0402 20.5174L27.4489 25.4913L28.5511 26.5087ZM35.6577 23.4319C34.1857 25.585 32.1601 28.2968 30.2194 30.3197L31.3018 31.3581C33.3254 29.2488 35.4045 26.4599 36.896 24.2785L35.6577 23.4319ZM23.2722 32.75H11V34.25H23.2722V32.75ZM35.2541 21.3175C35.9519 21.8159 36.1222 22.7524 35.6577 23.4319L36.896 24.2785C37.8405 22.8969 37.4599 21.0497 36.126 20.0969L35.2541 21.3175ZM33.1424 21.5348C33.6909 20.9406 34.596 20.8474 35.2541 21.3175L36.126 20.0969C34.8527 19.1874 33.1015 19.3676 32.0402 20.5174L33.1424 21.5348ZM8.00296 37.0011C7.97239 37.0147 7.9395 37.0166 7.90019 37.001C7.85746 36.984 7.812 36.9468 7.78295 36.8887L6.44131 37.5595C6.82178 38.3205 7.75057 38.7562 8.61414 38.3709L8.00296 37.0011ZM11.8514 35.8528C12.2253 35.3339 12.1903 34.7049 11.9656 34.2351L10.6124 34.8822C10.6309 34.921 10.6347 34.9521 10.634 34.9685C10.6335 34.982 10.6309 34.9808 10.6344 34.976L11.8514 35.8528ZM25.9332 23.2501C25.9395 23.2501 25.9432 23.2503 25.9451 23.2505C25.9468 23.2506 25.9477 23.2507 25.948 23.2508L26.1912 21.7706C26.0976 21.7552 26.0097 21.7498 25.9267 21.7502L25.9332 23.2501ZM5.40961 23.9765C5.39101 23.962 5.38267 23.9506 5.38232 23.9501C5.38212 23.9499 5.38352 23.9518 5.38627 23.9565C5.38902 23.9612 5.39275 23.9681 5.3973 23.9776L6.75051 23.3305C6.67385 23.1702 6.54757 22.9622 6.33377 22.795L5.40961 23.9765ZM30.2194 30.3197C28.497 32.115 25.9573 32.75 23.2722 32.75V34.25C26.1477 34.25 29.1746 33.5754 31.3018 31.3581L30.2194 30.3197ZM1.24656 23.8947C0.529684 24.3941 0.327898 25.3328 0.702419 26.0819L2.04406 25.4111C1.98631 25.2956 2.02771 25.1786 2.10395 25.1255L1.24656 23.8947Z" fill="#9EC9E3"/>
<ellipse cx="34.7915" cy="31" rx="5.79151" ry="6" fill="#6EC2F4"/>
</svg>
