<svg width="38" height="36" viewBox="0 0 38 36" fill="none" xmlns="http://www.w3.org/2000/svg">
<path d="M20.5 27H3C1.89543 27 1 26.1046 1 25V3C1 1.89543 1.89543 1 3 1H32C33.1046 1 34 1.89543 34 3V25C34 26.1046 33.1043 27 31.9998 27C30.4564 27 29.0932 27 27.75 27" stroke="#9EC9E3" stroke-width="1.5"/>
<path d="M9 5.25C8.58579 5.25 8.25 5.58579 8.25 6C8.25 6.41421 8.58579 6.75 9 6.75V5.25ZM25.5 6.75C25.9142 6.75 26.25 6.41421 26.25 6C26.25 5.58579 25.9142 5.25 25.5 5.25V6.75ZM9 6.75H25.5V5.25H9V6.75Z" fill="#9EC9E3"/>
<path d="M11 8.25C10.5858 8.25 10.25 8.58579 10.25 9C10.25 9.41421 10.5858 9.75 11 9.75V8.25ZM23 9.75C23.4142 9.75 23.75 9.41421 23.75 9C23.75 8.58579 23.4142 8.25 23 8.25V9.75ZM11 9.75H23V8.25H11V9.75Z" fill="#9EC9E3"/>
<path d="M20.5 22V33.5C21.8333 32.6667 25.1 31.5 27.5 33.5V22" stroke="#9EC9E3" stroke-width="1.5"/>
<circle cx="24" cy="18" r="2.25" stroke="#9EC9E3" stroke-width="1.5"/>
<circle cx="24" cy="18" r="5.25" stroke="#9EC9E3" stroke-width="1.5"/>
<ellipse cx="31.7915" cy="26" rx="5.79151" ry="6" fill="#6EC2F4"/>
</svg>
