<svg width="41" height="43" viewBox="0 0 41 43" fill="none" xmlns="http://www.w3.org/2000/svg">
<circle cx="5" cy="18" r="3.25" stroke="#9EC9E3" stroke-width="1.5"/>
<circle cx="31" cy="18" r="3.25" stroke="#9EC9E3" stroke-width="1.5"/>
<path d="M1 24.5V34.5C1 35.0523 1.44772 35.5 2 35.5H8.5C9.05229 35.5 9.5 35.0523 9.5 34.5V27.5L15.466 31.0796C16.3248 31.5949 17.4368 31.3448 17.9923 30.5115C18.554 29.669 18.3458 28.5327 17.5218 27.9441L9.35907 22.1136C8.80035 21.7145 8.1309 21.5 7.44428 21.5H4C2.34315 21.5 1 22.8431 1 24.5Z" stroke="#9EC9E3" stroke-width="1.5"/>
<path d="M35 25V35C35 35.5523 34.5523 36 34 36H27.9722C27.4199 36 26.9722 35.5523 26.9722 35V28L21.4522 31.5069C20.5898 32.0547 19.4464 31.7973 18.9021 30.9327C18.3919 30.1224 18.5866 29.0564 19.3504 28.4787L27.028 22.6721C27.6047 22.236 28.3079 22 29.0308 22H32C33.6569 22 35 23.3431 35 25Z" stroke="#9EC9E3" stroke-width="1.5"/>
<path d="M7.46967 9.46967C7.17678 9.76256 7.17678 10.2374 7.46967 10.5303C7.76256 10.8232 8.23744 10.8232 8.53033 10.5303L7.46967 9.46967ZM29.5166 1.54375C29.8169 1.25846 29.829 0.783743 29.5437 0.483438C29.2585 0.183133 28.7837 0.170961 28.4834 0.45625L29.5166 1.54375ZM18.6561 10.1248L19.2089 9.618L18.6561 10.1248ZM19.369 10.1494L18.8525 9.60569L19.369 10.1494ZM13.1307 4.86926L13.6611 5.39959L13.1307 4.86926ZM13.8529 4.88495L13.3 5.39174L13.8529 4.88495ZM8.53033 10.5303L13.6611 5.39959L12.6004 4.33893L7.46967 9.46967L8.53033 10.5303ZM13.3 5.39174L18.1032 10.6316L19.2089 9.618L14.4057 4.37816L13.3 5.39174ZM19.8856 10.6932L29.5166 1.54375L28.4834 0.45625L18.8525 9.60569L19.8856 10.6932ZM18.1032 10.6316C18.5756 11.1469 19.3788 11.1747 19.8856 10.6932L18.8525 9.60569C18.9538 9.50939 19.1145 9.51494 19.2089 9.618L18.1032 10.6316ZM13.6611 5.39959C13.5604 5.50023 13.3962 5.49667 13.3 5.39174L14.4057 4.37816C13.9248 3.85355 13.1036 3.83571 12.6004 4.33893L13.6611 5.39959Z" fill="#9EC9E3"/>
<path d="M27 0.25C26.5858 0.25 26.25 0.585786 26.25 1C26.25 1.41421 26.5858 1.75 27 1.75V0.25ZM29 1H29.75V0.25H29V1ZM28.25 3C28.25 3.41421 28.5858 3.75 29 3.75C29.4142 3.75 29.75 3.41421 29.75 3H28.25ZM27 1.75H29V0.25H27V1.75ZM28.25 1V3H29.75V1H28.25Z" fill="#9EC9E3"/>
<ellipse cx="34.7915" cy="37" rx="5.79151" ry="6" fill="#6EC2F4"/>
</svg>
