<svg width="49" height="38" viewBox="0 0 49 38" fill="none" xmlns="http://www.w3.org/2000/svg">
<circle cx="9.5" cy="7.20117" r="4.75" stroke="#9EC9E3" stroke-width="1.5"/>
<circle cx="22.5" cy="11.2012" r="4.75" stroke="#9EC9E3" stroke-width="1.5"/>
<circle cx="36.5" cy="7.20117" r="4.75" stroke="#9EC9E3" stroke-width="1.5"/>
<path d="M31.5 8.70049C33.6324 8.37243 38.0573 6.84971 38.9593 3.36967C38.9881 3.25871 38.9935 3.13977 38.975 3.02664C38.486 0.0269017 35.4907 0.738217 35 2.70078M41 8.20049C40.1667 8.03383 38.4 7.30049 38 5.70049" stroke="#9EC9E3" stroke-width="1.5"/>
<path d="M15 29.2012H2C1.44772 29.2012 1 28.7535 1 28.2012V22.7012C1 17.1783 5.02944 12.7012 10 12.7012C13.4829 12.7012 16.5038 14.8994 18 18.1154" stroke="#9EC9E3" stroke-width="1.5"/>
<path d="M31 30.2012H44C44.5523 30.2012 45 29.7535 45 29.2012V23.7012C45 18.1783 40.9706 13.7012 36 13.7012C32.5171 13.7012 29.4962 15.8994 28 19.1154" stroke="#9EC9E3" stroke-width="1.5"/>
<path d="M14.75 25.7012C14.75 20.4985 17.9975 16.4714 22.9625 16.4512C25.5576 16.7222 27.3442 18.1132 28.6372 19.9822C30.5133 22.6942 30.75 26.2075 30.75 29.7714V31.2012C30.75 31.3392 30.6381 31.4512 30.5 31.4512H28H15C14.8619 31.4512 14.75 31.3392 14.75 31.2012V25.7012Z" stroke="#9EC9E3" stroke-width="1.5"/>
<ellipse cx="42.7915" cy="32" rx="5.79151" ry="6" fill="#6EC2F4"/>
</svg>
