<svg width="41" height="38" viewBox="0 0 41 38" fill="none" xmlns="http://www.w3.org/2000/svg">
<path d="M3 17C3.3388 13.5 6.04918 6 14.1803 4" stroke="#9EC9E3" stroke-width="1.5"/>
<path d="M9.36475 12C9.36475 12.4142 9.70053 12.75 10.1147 12.75C10.529 12.75 10.8647 12.4142 10.8647 12H9.36475ZM13.4303 12C13.4303 12.4142 13.7661 12.75 14.1803 12.75C14.5945 12.75 14.9303 12.4142 14.9303 12H13.4303ZM9.36475 6V12H10.8647V6H9.36475ZM14.9303 12V2H13.4303V12H14.9303ZM15.1803 1.75H18.7541V0.25H15.1803V1.75ZM14.9303 2C14.9303 1.86193 15.0422 1.75 15.1803 1.75V0.25C14.2138 0.25 13.4303 1.0335 13.4303 2H14.9303Z" fill="#9EC9E3"/>
<path d="M34 17C33.6612 13.5 30.9508 6 22.8197 4" stroke="#9EC9E3" stroke-width="1.5"/>
<path d="M27.6353 12C27.6353 12.4142 27.2995 12.75 26.8853 12.75C26.471 12.75 26.1353 12.4142 26.1353 12H27.6353ZM23.5697 12C23.5697 12.4142 23.2339 12.75 22.8197 12.75C22.4055 12.75 22.0697 12.4142 22.0697 12H23.5697ZM27.6353 6V12H26.1353V6H27.6353ZM22.0697 12V2H23.5697V12H22.0697ZM21.8197 1.75H18.2459V0.25H21.8197V1.75ZM22.0697 2C22.0697 1.86193 21.9578 1.75 21.8197 1.75V0.25C22.7862 0.25 23.5697 1.0335 23.5697 2H22.0697Z" fill="#9EC9E3"/>
<rect x="0.75" y="17.75" width="35.5" height="3.5" rx="1.75" stroke="#9EC9E3" stroke-width="1.5"/>
<path d="M8.5 21.5C9.33333 23.5 12.5 27.5 18.5 27.5C20.6667 27.6667 25.7 26.7 28.5 21.5M3.5 21.5L5.63659 24.9185C5.85559 25.269 5.83652 25.718 5.58859 26.0485L5.02038 26.8062C4.72179 27.2043 4.76138 27.7614 5.11327 28.1133L6.99035 29.9903C7.29471 30.2947 7.75968 30.3702 8.14467 30.1777L9.09064 29.7047C9.35058 29.5747 9.6542 29.5643 9.92247 29.676L15.1122 31.8384C15.3602 31.9418 15.5562 32.1406 15.656 32.3901L16.2486 33.8714C16.4004 34.251 16.7681 34.5 17.177 34.5H19.823C20.2319 34.5 20.5996 34.251 20.7514 33.8714L21.3509 32.3728C21.4466 32.1336 21.631 31.9405 21.8655 31.8338L26.6113 29.6767C26.8596 29.5638 27.1432 29.5573 27.3965 29.6586L28.8878 30.2551C29.2592 30.4037 29.6834 30.3166 29.9663 30.0337L31.5337 28.4663C31.8166 28.1834 31.9037 27.7592 31.7551 27.3878L31.1884 25.9711C31.07 25.675 31.0999 25.3402 31.2689 25.0697L33.5 21.5" stroke="#9EC9E3" stroke-width="1.5"/>
<ellipse cx="34.7915" cy="32" rx="5.79151" ry="6" fill="#6EC2F4"/>
</svg>
