<svg width="34" height="47" viewBox="0 0 34 47" fill="none" xmlns="http://www.w3.org/2000/svg">
<ellipse cx="27.7915" cy="41" rx="5.79151" ry="6" fill="#6EC2F4"/>
<path d="M13 1C15.8333 4 19.9 12.1 13.5 22.5M10.5 1C7.83333 5 4.19998 14.5 11 22.5M20 3.5C17.6667 6 11.2 9.5 4 3.5M1 11.5H22.5M4 19C6.5 16.8333 13.1 13.8 19.5 19M8.5 22L9.36955 27.6521C9.4446 28.1399 9.86435 28.5 10.3579 28.5H13.6421C14.1357 28.5 14.5554 28.1399 14.6305 27.6521L15.5 22M6.5 40.5V29.5C6.5 28.9477 6.94772 28.5 7.5 28.5H16.5C17.0523 28.5 17.5 28.9477 17.5 29.5V40.5M0 45.5H4M24 45.5H20M4 45.5V41.5C4 40.9477 4.44772 40.5 5 40.5H19C19.5523 40.5 20 40.9477 20 41.5V45.5M4 45.5H20" stroke="#9EC9E3" stroke-width="1.5"/>
<circle cx="12" cy="11.5" r="10.75" stroke="#9EC9E3" stroke-width="1.5"/>
</svg>
