<svg width="26" height="27" viewBox="0 0 26 27" fill="none" xmlns="http://www.w3.org/2000/svg">
<path d="M1.96208 22.4601L0.90437 22.3584L1.96208 22.4601ZM24.038 22.4601L25.0956 22.3584L24.038 22.4601ZM22.9586 11.0239L21.9008 11.1256L22.9586 11.0239ZM3.04144 11.0239L4.09915 11.1256L3.04144 11.0239ZM6.27082 12.7245C6.27082 13.3166 6.74652 13.7967 7.33332 13.7967C7.92013 13.7967 8.39582 13.3166 8.39582 12.7245H6.27082ZM17.6042 12.7245C17.6042 13.3166 18.0799 13.7967 18.6667 13.7967C19.2534 13.7967 19.7292 13.3166 19.7292 12.7245H17.6042ZM5.86201 9.50813H20.138V7.36386H5.86201V9.50813ZM21.9008 11.1256L22.9801 22.5617L25.0956 22.3584L24.0163 10.9223L21.9008 11.1256ZM21.2174 24.518H4.78265V26.6622H21.2174V24.518ZM3.01979 22.5617L4.09915 11.1256L1.98373 10.9223L0.90437 22.3584L3.01979 22.5617ZM4.78265 24.518C3.73831 24.518 2.92078 23.6107 3.01979 22.5617L0.90437 22.3584C0.686543 24.6664 2.48511 26.6622 4.78265 26.6622V24.518ZM22.9801 22.5617C23.0792 23.6107 22.2616 24.518 21.2174 24.518V26.6622C23.5149 26.6622 25.3134 24.6664 25.0956 22.3584L22.9801 22.5617ZM20.138 9.50813C21.0509 9.50813 21.8142 10.2085 21.9008 11.1256L24.0163 10.9223C23.8259 8.9047 22.1464 7.36386 20.138 7.36386V9.50813ZM5.86201 7.36386C3.85349 7.36386 2.17416 8.9047 1.98373 10.9223L4.09915 11.1256C4.18571 10.2085 4.94905 9.50813 5.86201 9.50813V7.36386ZM8.39582 7.00648C8.39582 4.44061 10.4572 2.36057 13 2.36057V0.216309C9.28357 0.216309 6.27082 3.25638 6.27082 7.00648H8.39582ZM13 2.36057C15.5428 2.36057 17.6042 4.44061 17.6042 7.00648H19.7292C19.7292 3.25638 16.7163 0.216309 13 0.216309V2.36057ZM6.27082 7.00648V12.7245H8.39582V7.00648H6.27082ZM17.6042 7.00648V12.7245H19.7292V7.00648H17.6042Z" fill="#006EAD"/>
</svg>
