<svg width="36" height="18" viewBox="0 0 36 18" fill="none" xmlns="http://www.w3.org/2000/svg">
<path d="M7 0.7C6.28203 0.7 5.7 1.28203 5.7 2C5.7 2.71797 6.28203 3.3 7 3.3V0.7ZM34 3.3C34.718 3.3 35.3 2.71797 35.3 2C35.3 1.28203 34.718 0.7 34 0.7V3.3ZM7 3.3H34V0.7H7V3.3Z" fill="#006EAD"/>
<path d="M7 7.7C6.28203 7.7 5.7 8.28203 5.7 9C5.7 9.71797 6.28203 10.3 7 10.3V7.7ZM34 10.3C34.718 10.3 35.3 9.71797 35.3 9C35.3 8.28203 34.718 7.7 34 7.7V10.3ZM7 10.3H34V7.7H7V10.3Z" fill="#006EAD"/>
<path d="M7 14.7C6.28203 14.7 5.7 15.282 5.7 16C5.7 16.718 6.28203 17.3 7 17.3V14.7ZM34 17.3C34.718 17.3 35.3 16.718 35.3 16C35.3 15.282 34.718 14.7 34 14.7V17.3ZM7 17.3H34V14.7H7V17.3Z" fill="#006EAD"/>
<path d="M2 0.7C1.28203 0.7 0.7 1.28203 0.7 2C0.7 2.71797 1.28203 3.3 2 3.3V0.7ZM3 3.3C3.71797 3.3 4.3 2.71797 4.3 2C4.3 1.28203 3.71797 0.7 3 0.7V3.3ZM2 3.3H3V0.7H2V3.3Z" fill="#006EAD"/>
<path d="M2 7.7C1.28203 7.7 0.7 8.28203 0.7 9C0.7 9.71797 1.28203 10.3 2 10.3V7.7ZM3 10.3C3.71797 10.3 4.3 9.71797 4.3 9C4.3 8.28203 3.71797 7.7 3 7.7V10.3ZM2 10.3H3V7.7H2V10.3Z" fill="#006EAD"/>
<path d="M2 14.7C1.28203 14.7 0.7 15.282 0.7 16C0.7 16.718 1.28203 17.3 2 17.3V14.7ZM3 17.3C3.71797 17.3 4.3 16.718 4.3 16C4.3 15.282 3.71797 14.7 3 14.7V17.3ZM2 17.3H3V14.7H2V17.3Z" fill="#006EAD"/>
</svg>
