<svg width="39" height="40" viewBox="0 0 39 40" fill="none" xmlns="http://www.w3.org/2000/svg">
<path d="M28.0913 39.4813C25.5662 38.6621 23.103 38.1512 20.899 37.1094C11.238 32.4951 4.33388 25.2608 0.750462 15.0761C0.256009 13.6712 0.0899752 12.1113 0.00604592 10.6115C-0.0724097 8.94201 0.61727 7.46412 1.8087 6.25992C2.72098 5.34764 3.61683 4.408 4.54553 3.51032C6.41204 1.71132 8.40263 1.68577 10.2856 3.49025C11.8218 4.95902 13.3307 6.4588 14.7904 8.00237C16.5128 9.82692 16.5346 11.6515 14.9071 13.5399C14.2852 14.2844 13.605 14.9781 12.8728 15.6144C12.2342 16.1508 12.2615 16.5905 12.6648 17.2565C14.887 20.8974 17.9354 23.9639 21.5631 26.2077C22.2929 26.6675 22.8531 26.6967 23.4606 25.9742C24.0946 25.2389 24.7859 24.555 25.5279 23.9289C27.1535 22.5221 29.0693 22.513 30.6366 23.9872C32.3152 25.571 33.95 27.2094 35.5118 28.9135C37.0736 30.6177 37.07 32.4878 35.5355 34.2467C34.5357 35.3943 33.5486 36.6186 32.3261 37.4853C31.1037 38.3519 29.5857 38.7953 28.0913 39.4813ZM28.3815 36.9051C28.8558 36.7226 29.8794 36.5584 30.5709 35.9928C31.8226 34.9856 32.9264 33.7796 34.0011 32.5754C34.7053 31.7872 34.4627 30.9589 33.742 30.2418C32.2677 28.7822 30.7917 27.3098 29.3375 25.8246C28.4252 24.8977 27.5622 24.9908 26.6937 25.841C25.8253 26.6912 25.0079 27.7112 24.0117 28.4392C23.4789 28.8314 22.4371 29.1197 21.9262 28.8606C16.7664 26.2424 12.7961 22.3597 10.1524 17.1762C9.66157 16.2147 9.8349 15.3298 10.6997 14.5689C11.5646 13.8081 12.3418 12.9487 13.1738 12.1441C14.0058 11.3395 14.0861 10.4692 13.2359 9.61344C11.7361 8.1015 10.2339 6.59442 8.72922 5.09221C7.8881 4.24927 7.01779 4.25474 6.17485 5.06849C5.21149 5.99901 4.2609 6.94595 3.3395 7.91844C2.27396 9.04418 2.01852 10.4381 2.24477 11.9087C2.38298 12.8206 2.61094 13.7165 2.92533 14.5835C6.12011 23.4034 12.0481 29.8422 20.2111 34.3142C22.6068 35.6279 25.1228 36.6204 28.3815 36.9051Z" fill="white"/>
<path d="M20.7548 0.477744C20.9316 0.288282 21.1543 0.147732 21.4014 0.0697293C21.6485 -0.0082732 21.9116 -0.0210793 22.1651 0.0325534C25.4968 0.694865 28.3157 1.92461 30.8172 3.83309C35.0939 7.08444 37.8234 11.3411 38.909 16.6378C39.0806 17.468 39.0915 18.2014 38.192 18.4368C37.2633 18.6813 36.9458 18.008 36.7652 17.1852C35.3968 10.9817 31.8736 6.4203 26.15 3.67071C24.6757 2.96278 22.988 2.71282 21.4536 2.11254C21.0376 1.95016 20.6015 1.2769 20.5869 0.835356C20.5934 0.698663 20.6538 0.570105 20.7548 0.477744Z" fill="white"/>
<path d="M21.1711 7.08643C25.6084 7.34004 30.1771 11.3759 31.5711 15.9118C31.7189 16.3935 31.936 16.9262 31.8539 17.386V17.4006C31.81 17.601 31.713 17.7859 31.573 17.9359C31.433 18.0859 31.2551 18.1953 31.0582 18.2528C30.8613 18.3103 30.6525 18.3137 30.4538 18.2626C30.2551 18.2116 30.0738 18.1079 29.929 17.9626C29.8518 17.8879 29.7827 17.8053 29.7228 17.7163C29.4145 17.2437 29.4491 16.5631 29.2284 16.014C27.807 12.4707 25.2508 10.2465 21.5251 9.30873C21.4274 9.28166 21.3349 9.23849 21.2514 9.18101C21.0943 9.06754 20.964 8.92099 20.8698 8.75168C20.7755 8.58238 20.7195 8.39445 20.7057 8.20115C20.692 8.00785 20.7208 7.81389 20.7902 7.63295C20.8596 7.452 20.9678 7.28849 21.1073 7.15393L21.1711 7.08643Z" fill="white"/>
</svg>
