<svg width="38" height="38" viewBox="0 0 38 38" fill="none" xmlns="http://www.w3.org/2000/svg">
<path d="M36.9834 19.0088C36.9834 21.4242 37.0075 23.8396 36.9834 26.2534C36.9791 27.8282 36.7914 29.3971 36.4243 30.9286C36.0548 32.3962 35.4604 33.7402 34.2876 34.7779C33.4886 35.4592 32.5506 35.9589 31.5388 36.2422C30.3633 36.5806 29.1545 36.7909 27.9337 36.8693C25.6106 37.0569 23.2827 36.9848 20.9564 36.9928C18.2928 37.0024 15.6291 37.0024 12.9654 36.9928C11.4605 37.0038 9.95689 36.9024 8.4671 36.6897C7.28468 36.5052 6.13118 36.2229 5.05479 35.6792C3.51892 34.8949 2.52608 33.6648 1.93969 32.0834C1.55967 30.9941 1.31105 29.8634 1.19907 28.7153C0.927558 26.409 1.01431 24.0914 1.00949 21.7771C1.00949 18.4298 0.99664 15.0826 1.03038 11.7354C1.03035 10.1689 1.21422 8.6079 1.57821 7.0842C1.94932 5.60064 2.55499 4.24379 3.73742 3.20609C4.53294 2.53405 5.4646 2.04165 6.46855 1.76263C7.65191 1.42192 8.86873 1.21004 10.0978 1.13071C12.4208 0.943063 14.7487 1.01684 17.075 1.00722C19.7387 0.997594 22.4029 0.997594 25.0676 1.00722C26.5672 0.995075 28.0656 1.09641 29.5499 1.31034C30.7628 1.5012 31.9436 1.7915 33.0409 2.36568C34.535 3.14515 35.4989 4.37049 36.0725 5.92622C36.4477 7.00765 36.6936 8.12958 36.8051 9.26864C37.0653 11.4611 36.985 13.6632 36.9978 15.8621C36.9978 16.9094 36.9978 17.9567 36.9978 19.004L36.9834 19.0088ZM21.056 15.9246C21.056 15.0377 21.0657 14.1508 21.056 13.2654C21.056 12.6447 20.8311 12.4443 20.2174 12.4443H16.3071C16.2303 12.4432 16.1536 12.4469 16.0773 12.4555C15.9793 12.4627 15.8846 12.4941 15.8018 12.5469C15.7189 12.5996 15.6505 12.6722 15.6027 12.7579C15.5549 12.8436 15.5292 12.9399 15.5279 13.038C15.5266 13.1361 15.5498 13.233 15.5954 13.32C15.6584 13.442 15.7373 13.5553 15.8299 13.6568C16.3257 14.2298 16.5888 14.9673 16.5673 15.7241C16.5673 16.9463 16.5673 18.1689 16.5673 19.3921C16.5695 19.6133 16.5539 19.8343 16.5207 20.0529C16.4517 20.4362 16.1785 20.5662 15.8251 20.3945C15.7343 20.3551 15.6507 20.3009 15.5777 20.2342C15.2981 19.9746 15.0347 19.6982 14.7889 19.4066C13.7832 18.1139 13.0393 16.6704 12.4015 15.1708C12.1156 14.4988 11.8714 13.8075 11.5983 13.1275C11.5323 12.9216 11.3999 12.7432 11.2218 12.6202C11.0436 12.4972 10.8298 12.4365 10.6135 12.4475C9.69451 12.4475 8.77556 12.4379 7.85822 12.4475C7.20596 12.4587 6.95534 12.7682 7.05494 13.4098C7.22524 14.4475 7.60117 15.4226 8.01887 16.3833C8.91843 18.4248 10.0459 20.3585 11.3798 22.1476C12.7839 24.0561 14.535 25.5253 16.8196 26.2807C17.9294 26.6725 19.1207 26.7762 20.2817 26.5822C20.8424 26.4812 21.0528 26.2342 21.056 25.66C21.056 24.8725 21.056 24.085 21.056 23.2975C21.0571 23.1606 21.0678 23.0239 21.0882 22.8885C21.1364 22.5565 21.2858 22.4314 21.6231 22.4074C22.1854 22.3689 22.6192 22.6592 23.0417 22.9639C23.847 23.5739 24.5882 24.2639 25.254 25.0233C25.6476 25.4499 26.0412 25.8765 26.454 26.2839C26.5958 26.4189 26.7636 26.5236 26.9474 26.5914C27.1311 26.6593 27.3268 26.6889 27.5224 26.6784C28.3787 26.6688 29.2366 26.6784 30.0929 26.6784C30.8962 26.6784 31.2175 26.1973 30.9251 25.4467C30.9138 25.4178 30.8994 25.3921 30.8865 25.3649C30.5917 24.7336 30.2004 24.152 29.7266 23.6407C28.8832 22.6945 28.0092 21.7755 27.1561 20.842C26.5761 20.2133 26.5826 20.0032 27.0517 19.2847C27.9658 17.8845 28.8687 16.4779 29.7475 15.0553C30.1283 14.4902 30.3926 13.855 30.525 13.1868C30.5893 12.7843 30.3917 12.5229 29.9836 12.4667C29.9001 12.4545 29.8158 12.4486 29.7314 12.4491C28.8371 12.4491 27.9417 12.4491 27.0453 12.4491C26.8019 12.4379 26.5613 12.5049 26.3589 12.6403C26.1565 12.7757 26.0029 12.9723 25.9207 13.2013C25.22 14.8708 24.3191 16.4493 23.2377 17.9022C22.8859 18.4036 22.4513 18.8418 21.9525 19.1981C21.4786 19.5108 21.1669 19.3697 21.0769 18.8164C21.0633 18.7256 21.0568 18.6339 21.0576 18.5421C21.0566 17.6685 21.056 16.796 21.056 15.9246Z" stroke="#6EC2F4" stroke-width="1.6" stroke-miterlimit="10"/>
</svg>
