<svg width="36" height="36" viewBox="0 0 36 36" fill="none" xmlns="http://www.w3.org/2000/svg">
<path d="M3.29734 0H32.6174C32.6648 0.028562 32.7153 0.0515339 32.768 0.0684556C33.785 0.278712 34.6259 0.78724 35.1882 1.65858C35.4067 2.00085 35.5559 2.3875 35.705 2.77403C35.7728 2.94964 35.8405 3.12524 35.9148 3.29663V32.6191C35.8857 32.6787 35.8615 32.7405 35.8424 32.8039C35.4512 34.6092 33.8867 35.9138 32.0708 35.9148H3.84396C2.82786 35.9071 1.85546 35.5004 1.1364 34.7824C0.417334 34.0644 0.00920639 33.0925 0 32.0763C0 22.6647 0.00162976 13.254 0.00488929 3.84427C0.00488929 2.58469 0.558357 1.57937 1.53621 0.796041C2.0535 0.378462 2.6764 0.188742 3.29734 0ZM23.4412 34.3334C23.4809 34.336 23.5169 34.339 23.5504 34.3419C23.6078 34.3467 23.6582 34.351 23.7082 34.351H31.8439C32.1004 34.3525 32.356 34.3196 32.6037 34.2532C33.7459 33.9374 34.3512 33.0621 34.3512 31.7429V4.17677C34.3578 3.89689 34.3292 3.61729 34.2661 3.34455C33.962 2.19254 33.0643 1.5647 31.7373 1.5647H4.1735C3.8936 1.55838 3.61402 1.58729 3.34134 1.65076C2.18942 1.95587 1.56457 2.85167 1.56457 4.1797V31.7468C1.55808 32.0264 1.58733 32.3058 1.6516 32.578C1.94496 33.7124 2.8309 34.3481 4.10798 34.3501C7.82384 34.3553 11.5413 34.3553 15.2604 34.3501C15.3271 34.3501 15.3965 34.3437 15.4677 34.3372C15.501 34.3341 15.5346 34.331 15.5685 34.3285V24.9883H15.1656H10.3614C9.63776 24.9883 9.3493 24.6949 9.34832 23.9653V18.2141C9.34832 17.4611 9.6319 17.1804 10.3829 17.1794H15.5929V16.7521C15.5929 16.4391 15.5916 16.1262 15.5903 15.8132C15.587 15.0504 15.5838 14.2877 15.5998 13.5249C15.5986 12.9764 15.6483 12.429 15.7484 11.8898C16.4603 8.52664 19.2824 6.25195 22.7205 6.24511H28.6855C29.3797 6.24511 29.6692 6.53067 29.6702 7.2162V12.9675C29.6702 13.8202 29.4228 14.0667 28.5593 14.0667H23.45V17.1784H28.6512C29.4012 17.1784 29.6682 17.4435 29.6682 18.1847V23.936C29.6682 24.7301 29.4149 24.9863 28.6238 24.9873H23.8196H23.4392L23.4412 34.3334ZM28.0821 7.83132C28.0327 7.8288 27.9889 7.82588 27.9487 7.82319C27.8798 7.8186 27.8214 7.8147 27.7633 7.8147H22.8193C22.5154 7.80977 22.2114 7.82644 21.9099 7.86457C20.5954 8.04474 19.3913 8.69697 18.5223 9.6996C17.6532 10.7022 17.1786 11.9868 17.1868 13.3136C17.1836 14.2877 17.1847 15.2617 17.1857 16.2357C17.1863 16.7227 17.1868 17.2097 17.1868 17.6968C17.1868 18.4644 16.9228 18.7324 16.162 18.7334H10.9696V23.4187H16.1523C16.915 23.4187 17.1868 23.6896 17.1868 24.4465V33.9139V34.3256H21.8522V33.8533V24.4563C21.8522 23.6925 22.126 23.4226 22.8848 23.4226H28.0772V18.7383H22.8721C22.1318 18.7383 21.8532 18.4664 21.8512 17.73C21.846 16.3159 21.846 14.9015 21.8512 13.4867C21.8512 12.7719 22.1446 12.4892 22.8516 12.4883H27.69H28.0811L28.0821 7.83132Z" fill="#6EC2F4"/>
<path d="M3.29734 0H32.6174C32.6648 0.028562 32.7153 0.0515339 32.768 0.0684556C33.785 0.278712 34.6259 0.78724 35.1882 1.65858C35.4067 2.00085 35.5559 2.3875 35.705 2.77403C35.7728 2.94964 35.8405 3.12524 35.9148 3.29663V32.6191C35.8857 32.6787 35.8615 32.7405 35.8424 32.8039C35.4512 34.6092 33.8867 35.9138 32.0708 35.9148H3.84396C2.82786 35.9071 1.85546 35.5004 1.1364 34.7824C0.417334 34.0644 0.00920639 33.0925 0 32.0763C0 22.6647 0.00162976 13.254 0.00488929 3.84427C0.00488929 2.58469 0.558357 1.57937 1.53621 0.796041C2.0535 0.378462 2.6764 0.188742 3.29734 0ZM23.4412 34.3334C23.4809 34.336 23.5169 34.339 23.5504 34.3419C23.6078 34.3467 23.6582 34.351 23.7082 34.351H31.8439C32.1004 34.3525 32.356 34.3196 32.6037 34.2532C33.7459 33.9374 34.3512 33.0621 34.3512 31.7429V4.17677C34.3578 3.89689 34.3292 3.61729 34.2661 3.34455C33.962 2.19254 33.0643 1.5647 31.7373 1.5647H4.1735C3.8936 1.55838 3.61402 1.58729 3.34134 1.65076C2.18942 1.95587 1.56457 2.85167 1.56457 4.1797V31.7468C1.55808 32.0264 1.58733 32.3058 1.6516 32.578C1.94496 33.7124 2.8309 34.3481 4.10798 34.3501C7.82384 34.3553 11.5413 34.3553 15.2604 34.3501C15.3271 34.3501 15.3965 34.3437 15.4677 34.3372C15.501 34.3341 15.5346 34.331 15.5685 34.3285V24.9883H15.1656H10.3614C9.63776 24.9883 9.3493 24.6949 9.34832 23.9653V18.2141C9.34832 17.4611 9.6319 17.1804 10.3829 17.1794H15.5929V16.7521C15.5929 16.4391 15.5916 16.1262 15.5903 15.8132C15.587 15.0504 15.5838 14.2877 15.5998 13.5249C15.5986 12.9764 15.6483 12.429 15.7484 11.8898C16.4603 8.52664 19.2824 6.25195 22.7205 6.24511H28.6855C29.3797 6.24511 29.6692 6.53067 29.6702 7.2162V12.9675C29.6702 13.8202 29.4228 14.0667 28.5593 14.0667H23.45V17.1784H28.6512C29.4012 17.1784 29.6682 17.4435 29.6682 18.1847V23.936C29.6682 24.7301 29.4149 24.9863 28.6238 24.9873H23.8196H23.4392L23.4412 34.3334ZM28.0821 7.83132C28.0327 7.8288 27.9889 7.82588 27.9487 7.82319C27.8798 7.8186 27.8214 7.8147 27.7633 7.8147H22.8193C22.5154 7.80977 22.2114 7.82644 21.9099 7.86457C20.5954 8.04474 19.3913 8.69697 18.5223 9.6996C17.6532 10.7022 17.1786 11.9868 17.1868 13.3136C17.1836 14.2877 17.1847 15.2617 17.1857 16.2357C17.1863 16.7227 17.1868 17.2097 17.1868 17.6968C17.1868 18.4644 16.9228 18.7324 16.162 18.7334H10.9696V23.4187H16.1523C16.915 23.4187 17.1868 23.6896 17.1868 24.4465V33.9139V34.3256H21.8522V33.8533V24.4563C21.8522 23.6925 22.126 23.4226 22.8848 23.4226H28.0772V18.7383H22.8721C22.1318 18.7383 21.8532 18.4664 21.8512 17.73C21.846 16.3159 21.846 14.9015 21.8512 13.4867C21.8512 12.7719 22.1446 12.4892 22.8516 12.4883H27.69H28.0811L28.0821 7.83132Z" stroke="black"/>
</svg>
