<svg width="38" height="38" viewBox="0 0 38 38" fill="none" xmlns="http://www.w3.org/2000/svg">
<path d="M17.3869 36.9969H17.6174C15.8275 36.8327 14.0707 36.4104 12.4018 35.743C8.90601 34.3412 6.03336 32.1529 3.96612 28.9708C2.55695 26.8169 1.60813 24.3951 1.17915 21.8574C1.11216 21.4617 1.0592 21.0646 1 20.6674V17.2843C1.03895 17.032 1.07789 16.7797 1.11528 16.5258C1.6375 12.7349 3.34402 9.2058 5.9913 6.44213C8.69414 3.59646 12.0622 1.95011 15.8913 1.20716C16.326 1.12305 16.7668 1.06853 17.2046 1H20.7549C21.0493 1.04205 21.3453 1.08099 21.6382 1.12928C25.0172 1.66102 28.1852 3.11034 30.7967 5.31913C32.3109 6.58543 33.4653 8.14144 34.4716 9.82205C35.7083 11.8601 36.5201 14.1271 36.8582 16.4869C36.9096 16.8498 36.9533 17.2143 37 17.5772V20.3808C36.9844 20.4976 36.9657 20.6129 36.9533 20.7281C36.7834 22.3544 36.3945 23.9503 35.7974 25.4725C34.671 28.3431 32.9932 30.8243 30.6113 32.793C28.1568 34.8288 25.2148 36.1911 22.0744 36.7461C21.5042 36.852 20.9231 36.9097 20.3467 36.9891L17.6174 37M15.5922 27.3182C15.7746 27.2664 15.9515 27.1971 16.1203 27.111C16.3547 26.9618 16.5747 26.7913 16.7777 26.6017C17.3744 26.0379 17.9586 25.46 18.5474 24.8884C18.5957 24.8416 18.6471 24.7996 18.7032 24.7544C20.1551 25.8307 21.5868 26.9007 23.0293 27.9537C23.247 28.1009 23.4868 28.2123 23.7397 28.2839C23.8928 28.3388 24.0607 28.3364 24.2122 28.2771C24.3637 28.2179 24.4886 28.1057 24.5638 27.9614C24.6718 27.7839 24.7512 27.5905 24.799 27.3883C25.39 24.648 25.9757 21.9077 26.5563 19.1674C26.9177 17.4713 27.2822 15.7751 27.6327 14.0758C27.7443 13.6121 27.8131 13.1392 27.8384 12.663C27.8508 12.0634 27.3118 11.702 26.7292 11.8562C26.6358 11.8816 26.5438 11.9118 26.4535 11.9466L19.2485 14.7253C16.2128 15.8966 13.1776 17.0684 10.1429 18.2407C9.63975 18.4354 9.13813 18.641 8.65208 18.8762C8.52855 18.9233 8.4241 19.0099 8.35505 19.1226C8.28599 19.2354 8.25623 19.3678 8.27041 19.4992C8.3078 19.7889 8.5555 19.8715 8.79229 19.9447C10.2691 20.3979 11.7522 20.8465 13.2243 21.3029C13.2882 21.3257 13.3567 21.3329 13.424 21.3237C13.4912 21.3144 13.5553 21.2891 13.6107 21.2499C17.0192 19.0984 20.4298 16.951 23.8425 14.8078C23.969 14.7377 24.1084 14.6943 24.2522 14.6801C24.2887 14.6817 24.3242 14.6922 24.3557 14.7107C24.3872 14.7291 24.4137 14.755 24.4329 14.786C24.4548 14.8234 24.4158 14.9215 24.3737 14.9636C24.2491 15.0944 24.1105 15.2112 23.9765 15.3343C22.561 16.6302 21.1449 17.9281 19.7283 19.2282C18.5007 20.3496 17.2726 21.4706 16.044 22.591C15.9989 22.6319 15.9688 22.6867 15.9583 22.7467C15.9256 23.0286 15.9007 23.3137 15.8789 23.5972C15.8212 24.3448 15.7667 25.094 15.7106 25.8416C15.6764 26.2995 15.6405 26.7684 15.6 27.3151L15.5922 27.3182Z" stroke="#6EC2F4" stroke-width="1.6" stroke-miterlimit="10"/>
</svg>
